<svg xmlns="http://www.w3.org/2000/svg" width="29" height="30" viewBox="0 0 29 30" fill="none">
  <path d="M26.7309 10.1684C27.1868 10.1684 27.5734 10.3121 27.8905 10.5995C28.2077 10.887 28.3662 11.2388 28.3662 11.6551V20.4261C28.3662 20.8225 28.2077 21.1644 27.8905 21.4519C27.5734 21.7393 27.1868 21.883 26.7309 21.883H26.1958C25.7399 21.883 25.3534 21.7393 25.0362 21.4519C24.7191 21.1644 24.5605 20.8225 24.5605 20.4261V11.6551C24.5605 11.2388 24.7191 10.8869 25.0362 10.5995C25.3534 10.3121 25.7399 10.1684 26.1958 10.1684H26.7309ZM2.61797 10.1684C3.07387 10.1684 3.45048 10.3121 3.7478 10.5995C4.04513 10.887 4.19379 11.2388 4.19379 11.6551V20.4261C4.19379 20.8225 4.04513 21.1644 3.7478 21.4519C3.45048 21.7393 3.07387 21.883 2.61797 21.883H2.08277C1.62688 21.883 1.24035 21.7393 0.923203 21.4519C0.606055 21.1644 0.44749 20.8225 0.44751 20.4261V11.6551C0.44751 11.2388 0.606084 10.8869 0.923232 10.5995C1.24038 10.3121 1.6269 10.1684 2.0828 10.1684H2.61797ZM19.0303 3.27049C19.3871 3.42909 19.7587 3.64712 20.1452 3.9246C20.5318 4.20208 20.9034 4.52913 21.2602 4.90576C21.617 5.28238 21.9292 5.69369 22.1968 6.13968C22.4643 6.58568 22.6576 7.05644 22.7765 7.55197H5.88853C6.20567 6.50142 6.70617 5.63918 7.39002 4.96526C8.07387 4.29133 8.76267 3.75615 9.45642 3.3597L7.94007 0.981087C7.90042 0.941439 7.89547 0.867122 7.92522 0.758138C7.95496 0.649154 8.05902 0.535169 8.2374 0.416185C8.39598 0.277435 8.54464 0.213011 8.68339 0.222913C8.82214 0.232816 8.91133 0.257601 8.95096 0.297269L10.4971 2.73533C11.0521 2.47763 11.6368 2.27941 12.2513 2.14066C12.8658 2.00191 13.5001 1.93253 14.1542 1.93253C15.502 1.93253 16.7607 2.21004 17.9302 2.76506L19.506 0.297269C19.5457 0.25762 19.62 0.237796 19.729 0.237796C19.838 0.237796 20.0015 0.297269 20.2196 0.416214C20.4178 0.515296 20.5318 0.604486 20.5615 0.683782C20.5912 0.763079 20.5863 0.822552 20.5466 0.8622L19.0303 3.27049ZM10.7349 5.82749C10.9926 5.82749 11.2106 5.73829 11.389 5.5599C11.5674 5.3815 11.6566 5.16346 11.6566 4.90578C11.6566 4.64811 11.5674 4.43007 11.389 4.25167C11.2106 4.07328 10.9926 3.98408 10.7349 3.98408C10.4772 3.98408 10.2592 4.07328 10.0808 4.25167C9.90237 4.43007 9.81318 4.64811 9.81322 4.90578C9.81326 5.16346 9.90245 5.3815 10.0808 5.5599C10.2591 5.73829 10.4772 5.82749 10.7349 5.82749ZM18.0491 5.70855C18.3068 5.70855 18.5248 5.61936 18.7032 5.44098C18.8816 5.2626 18.9708 5.04455 18.9708 4.78684C18.9708 4.52912 18.8816 4.31109 18.7032 4.13273C18.5249 3.95437 18.3068 3.86518 18.0491 3.86516C17.7914 3.86514 17.5733 3.95433 17.395 4.13273C17.2166 4.31113 17.1274 4.52916 17.1274 4.78684C17.1274 5.04452 17.2166 5.26256 17.395 5.44098C17.5733 5.6194 17.7914 5.70859 18.0491 5.70855ZM22.7765 9.42512L22.8063 22.8047C22.8063 23.2408 22.6626 23.6075 22.3752 23.9048C22.0878 24.2022 21.7359 24.3508 21.3197 24.3508H20.9034V28.5133C20.9034 28.9098 20.7597 29.2566 20.4723 29.5539C20.1849 29.8513 19.833 29.9999 19.4168 29.9999H18.5546C18.1581 29.9999 17.8162 29.8513 17.5288 29.5539C17.2413 29.2566 17.0976 28.9098 17.0977 28.5133V24.3508H11.6269V28.5133C11.6269 28.9098 11.4832 29.2566 11.1958 29.5539C10.9084 29.8513 10.5565 29.9999 10.1403 29.9999H9.27806C8.88163 29.9999 8.53971 29.8513 8.25229 29.5539C7.96486 29.2566 7.82116 28.9098 7.82118 28.5133V24.3508H7.49411C7.07786 24.3508 6.72603 24.2021 6.4386 23.9048C6.15118 23.6075 6.00748 23.2408 6.0075 22.8047V9.42509H22.7766L22.7765 9.42512Z" fill="white"/>
</svg>