<svg xmlns="http://www.w3.org/2000/svg" width="30" height="30" viewBox="0 0 30 30" fill="none">
  <path d="M22.417 14.6092C22.4037 12.3433 23.4303 10.6355 25.5036 9.37622C24.344 7.71495 22.5897 6.80125 20.2772 6.62515C18.0877 6.45238 15.6921 7.90101 14.815 7.90101C13.888 7.90101 11.7682 6.68496 10.1003 6.68496C6.65813 6.73812 3 9.42938 3 14.9049C3 16.523 3.29571 18.1943 3.88712 19.9153C4.67789 22.1813 7.52863 27.7333 10.5023 27.6436C12.0573 27.607 13.157 26.5405 15.1805 26.5405C17.1441 26.5405 18.1608 27.6436 19.8952 27.6436C22.8954 27.6004 25.4737 22.5534 26.2246 20.2808C22.201 18.3836 22.417 14.7255 22.417 14.6092Z" fill="white"/>
  <path d="M18.925 4.47547C20.6095 2.4753 20.4567 0.654542 20.4068 0C18.9183 0.0863862 17.1973 1.01338 16.2171 2.15301C15.1373 3.37571 14.5027 4.88747 14.6389 6.59193C16.247 6.71487 17.7156 5.88755 18.925 4.47547Z" fill="white"/>
</svg>