<svg xmlns="http://www.w3.org/2000/svg" width="139" height="77" viewBox="0 0 139 77" fill="none">
  <g clip-path="url(#clip0_504_2813)">
    <path d="M125.355 28.613L124.836 24.8998C124.816 24.7601 124.829 24.6159 124.877 24.4794L131.545 5.50205C131.766 4.87237 131.243 4.23353 130.588 4.325L118.039 6.0789C117.7 6.12635 117.416 6.36696 117.317 6.69914L116.802 8.38347C116.582 9.10524 115.624 9.23901 115.211 8.60585L114.245 7.12436C114.058 6.8363 113.72 6.68258 113.38 6.73003L88.0658 10.2681C87.5832 10.3356 87.2415 10.7854 87.3098 11.2742L87.7812 14.6465L87.0812 13.3079L85.9469 11.1296C85.7753 10.7977 85.4113 10.6098 85.0391 10.6618L75.2797 12.0259C74.9075 12.0779 74.613 12.3578 74.535 12.7246L73.6206 17.1324C73.4835 17.7923 72.6925 18.0704 72.1842 17.6263C69.0058 14.8459 64.5632 13.553 59.5485 14.2539L48.7502 15.7631C48.2675 15.8305 47.9259 16.2803 47.9942 16.7691C48.1033 17.5496 47.2147 18.0842 46.5885 17.6021C42.6303 14.5538 37.4914 13.0525 32.1699 13.7963C31.99 13.8214 31.8059 13.8471 31.623 13.8811C25.8874 14.8544 20.9655 18.2477 18.1082 23.195C15.2344 28.174 14.7477 34.2097 16.7768 39.7471C17.8277 42.6113 19.5957 45.5344 21.5355 48.1948C21.8866 48.6776 21.6618 49.3665 21.0959 49.5544C7.36191 54.1081 5.82192 59.9476 6.28694 63.2748C7.70496 73.4205 28.3056 73.3011 40.2573 71.6306C48.6096 70.4633 60.8142 67.409 66.9234 62.2166C67.4525 61.7657 68.2684 62.083 68.3648 62.7731L68.8706 66.3919C68.9383 66.8766 69.3867 67.2202 69.8734 67.1521L104.465 62.3175C104.837 62.2655 105.139 61.9803 105.212 61.6099L105.796 58.6262C105.87 58.2558 106.168 57.9712 106.544 57.9186L107.542 57.7791C107.914 57.7271 108.283 57.9185 108.455 58.2546L109.834 60.9639C110.007 61.3 110.371 61.492 110.747 61.4394L126.225 59.2762C126.708 59.2087 127.049 58.7589 126.981 58.2701L126.081 51.8294C126.018 51.3817 126.3 50.9487 126.74 50.8453C133.747 49.1874 136.275 43.5198 135.594 38.6523C134.864 33.4275 131.232 30.0237 126.14 29.3953C125.737 29.3469 125.424 29.018 125.368 28.6154L125.355 28.613Z" fill="black"/>
    <path d="M72.754 27.6396C73.6478 34.0351 69.8517 38.7996 63.1232 39.74L55.7566 40.7696L52.7994 19.6113L60.166 18.5817C66.8945 17.6413 71.8555 21.2112 72.754 27.6396ZM62.4637 36.1552C66.9016 35.535 69.0489 32.6384 68.4347 28.2432C67.8204 23.8481 64.9486 21.5609 60.5106 22.1812L57.5206 22.5991L59.4737 36.5731L62.4637 36.1552Z" fill="#FFF932"/>
    <path d="M63.147 39.942L55.5841 40.999L52.5707 19.4382L60.1336 18.3812C67.0011 17.4214 72.0321 21.0442 72.9501 27.6123C73.8681 34.1803 70.0146 38.9821 63.147 39.942ZM55.9287 40.5404L63.0948 39.5389C69.7211 38.6127 73.4358 33.9518 72.5574 27.6672C71.6791 21.3825 66.8202 17.8571 60.1939 18.7832L53.0278 19.7848L55.9287 40.5404ZM62.4916 36.3567L59.3053 36.802L57.296 22.4254L60.4823 21.9801C64.9529 21.3552 68.0016 23.6847 68.6349 28.2154C69.2681 32.7461 67.0318 35.7221 62.4916 36.3567ZM59.6499 36.3434L62.4394 35.9535C66.726 35.3544 68.8369 32.5551 68.2381 28.2709C67.6393 23.9866 64.8251 21.7835 60.5426 22.382L57.7531 22.7719L59.6499 36.3434Z" fill="#FFF932"/>
    <path d="M87.3463 32.2418L78.9572 33.4143L78.1338 37.6376L73.6958 38.2579L78.3098 16.0122L83.2304 15.3245L93.7668 35.4527L89.3002 36.077L87.3504 32.2412L87.3463 32.2418ZM81.4383 20.5836L79.6282 29.8613L85.7268 29.009L81.4424 20.583L81.4383 20.5836Z" fill="#FFF932"/>
    <path d="M94.0776 35.6186L89.1857 36.3024L87.2359 32.4666L79.129 33.5997L78.3056 37.823L73.4423 38.5027L78.1431 15.8345L83.346 15.1073L83.4134 15.2319L94.0853 35.6134L94.0776 35.6186ZM89.4117 35.8604L93.4528 35.2955L83.1159 15.5498L78.4775 16.1981L73.9505 38.0213L77.963 37.4605L78.7864 33.2371L87.4619 32.0246L89.4117 35.8604ZM86.0331 29.1714L79.3741 30.1021L81.3527 19.9715L86.0331 29.1714ZM79.8823 29.6206L85.4164 28.8472L81.5244 21.1997L79.8782 29.6212L79.8823 29.6206Z" fill="#FFF932"/>
    <path d="M92.111 14.1171L96.3362 13.5265L99.2934 34.6847L95.0681 35.2753L92.111 14.1171Z" fill="#FFF932"/>
    <path d="M99.5217 34.8578L94.8956 35.5044L91.8822 13.9436L96.5083 13.297L99.5212 34.8537L99.5217 34.8578ZM95.2402 35.0458L99.0646 34.5113L96.1637 13.7556L92.3393 14.2901L95.2402 35.0458Z" fill="#FFF932"/>
    <path d="M103.085 12.5832L105.572 30.3773L112.513 29.4071L112.983 32.7713L101.817 34.3319L98.8599 13.1737L103.085 12.5832Z" fill="#FFF932"/>
    <path d="M113.212 32.9443L101.645 34.561L98.6311 13.0002L103.257 12.3537L105.744 30.1478L112.685 29.1776L113.212 32.9443ZM101.989 34.1024L112.755 32.5978L112.341 29.6362L105.4 30.6064L102.913 12.8122L99.0882 13.3468L101.989 34.1024Z" fill="#FFF932"/>
    <path d="M107.04 12.0303L111.81 11.3637L117.689 20.4001L120.833 10.1026L125.541 9.44459L120.347 24.2291L121.376 31.594L117.151 32.1845L116.121 24.8196L107.04 12.0303Z" fill="#FFF932"/>
    <path d="M121.605 31.7713L116.979 32.4179L115.928 24.901L106.681 11.8794L111.905 11.1494L117.619 19.9324L120.674 9.92369L125.84 9.20167L120.55 24.255L121.601 31.7719L121.605 31.7713ZM117.324 31.9593L121.148 31.4248L120.158 24.1633L125.241 9.69157L120.988 10.2861L117.755 20.8725L111.711 11.5827L107.4 12.1852L116.315 24.7464L117.324 31.9593Z" fill="#FFF932"/>
    <path d="M69.7466 41.1804L74.5445 40.5098L83.4431 55.3055L87.9442 38.637L92.7134 37.9705L95.6706 59.1287L91.4453 59.7192L89.5221 45.9588L85.8008 60.5081L82.6022 60.9552L75.0058 47.9877L76.929 61.7481L72.7038 62.3386L69.7466 41.1804Z" fill="#FFF932"/>
    <path d="M95.8983 59.2977L91.2722 59.9442L89.4627 46.9971L85.9631 60.6863L82.4945 61.1711L75.3425 48.9664L77.1526 61.9177L72.5265 62.5642L69.5137 41.0076L74.6429 40.2907L74.7133 40.4065L83.3676 54.7966L87.7814 38.4586L92.8819 37.7457L95.8948 59.3024L95.8983 59.2977ZM91.6174 59.4898L95.4418 58.9553L92.5409 38.1996L88.1029 38.8199L83.514 55.8147L74.4414 40.7292L69.9749 41.3535L72.8758 62.1092L76.7002 61.5747L74.6639 47.005L82.7088 60.7349L85.6415 60.325L89.5846 44.9155L91.6215 59.4892L91.6174 59.4898Z" fill="#FFF932"/>
    <path d="M110.629 52.9254L102.24 54.0979L101.417 58.3212L96.9786 58.9415L101.593 36.6958L106.513 36.008L117.05 56.1363L112.583 56.7606L110.633 52.9248L110.629 52.9254ZM104.721 41.2672L102.911 50.5449L109.01 49.6926L104.725 41.2666L104.721 41.2672Z" fill="#FFF932"/>
    <path d="M117.36 56.2981L112.468 56.9818L110.518 53.146L102.411 54.2791L101.588 58.5025L96.7246 59.1822L101.425 36.5139L106.628 35.7867L106.696 35.9113L117.368 56.2928L117.36 56.2981ZM112.695 56.5439L116.736 55.9791L106.399 36.2334L101.76 36.8817L97.2334 58.7048L101.246 58.144L102.069 53.9207L110.745 52.7082L112.695 56.5439ZM109.315 49.8508L102.656 50.7815L104.635 40.651L109.315 49.8508ZM103.161 50.3048L108.695 49.5313L104.803 41.8838L103.157 50.3053L103.161 50.3048Z" fill="#FFF932"/>
    <path d="M124.574 46.8055L121.044 47.2988L122.18 55.4236L117.954 56.0142L114.997 34.856L122.752 33.7721C127.824 33.0632 130.759 35.5887 131.271 39.2568C131.72 42.469 130.006 46.0463 124.574 46.8055ZM123.911 43.4055C126.296 43.0722 127.186 41.7417 126.923 39.8645C126.661 37.9873 125.436 36.919 123.051 37.2523L119.701 37.7205L120.561 43.8737L123.911 43.4055Z" fill="#FFF932"/>
    <path d="M122.403 55.5932L117.777 56.2398L114.764 34.6831L122.72 33.5712C127.534 32.8983 130.885 35.0641 131.467 39.2292C131.898 42.314 130.357 46.2022 124.598 47.0071L121.268 47.4725L122.404 55.5973L122.403 55.5932ZM118.122 55.7853L121.947 55.2508L120.811 47.126L124.541 46.6046C127.957 46.1272 131.719 43.9221 131.071 39.2847C130.523 35.3701 127.345 33.3352 122.776 33.9737L115.217 35.0302L118.118 55.7859L118.122 55.7853ZM123.939 43.6066L120.389 44.1028L119.472 37.5471L123.023 37.0508C125.403 36.7181 126.822 37.6799 127.123 39.8363C127.425 41.9928 126.287 43.2784 123.939 43.6066ZM120.733 43.6442L123.883 43.204C126.034 42.9033 126.988 41.7901 126.723 39.8924C126.457 37.9947 125.226 37.1533 123.079 37.4534L119.929 37.8936L120.733 43.6442Z" fill="#FFF932"/>
    <path d="M66.5202 54.8563C67.1936 59.6745 55.1737 65.3329 39.6798 67.4984C24.1858 69.6639 11.0746 67.5138 10.4017 62.6997C9.8506 58.7564 15.3436 54.7347 26.7394 52.0406C26.8192 52.1341 26.9066 52.2224 26.9858 52.3119C27.7281 53.1169 28.528 53.9473 29.3467 54.7626C22.9036 56.2829 20.382 58.1723 20.6289 59.9386C20.951 62.2429 29.1146 63.0074 38.8617 61.6451C48.6088 60.2828 56.25 57.3094 55.9279 55.005C55.6805 53.2346 52.7137 52.0286 46.044 52.3452C46.5626 51.4309 47.0854 50.4575 47.609 49.4295C47.6688 49.3206 47.7205 49.2129 47.7797 49.0999C59.5208 48.5477 65.9755 50.8995 66.5284 54.8552L66.5202 54.8563Z" fill="#FFF932"/>
    <path d="M49.7136 29.9969C48.1531 21.9943 40.3115 16.641 32.3226 17.9921C22.7986 19.608 17.3405 29.1904 20.6793 38.3097C22.1973 42.4571 25.793 47.2982 29.6024 51.4603C31.9345 54.0031 34.3442 56.2962 36.416 58.021C37.3878 58.8275 38.4768 59.1903 39.5289 58.2141C40.2373 57.5539 41.7251 54.9212 42.3069 53.9521C43.1221 52.5944 44.0039 51.0263 44.8714 49.3263C47.9439 43.3228 50.8142 35.6935 49.706 30.0021L49.7136 29.9969ZM42.6184 44.3059C41.7938 46.1633 40.8314 47.9603 39.8241 49.7344C39.1571 50.8997 38.4721 52.0549 37.7817 53.2026C37.6595 53.2532 36.7359 52.3437 36.5535 52.1723C35.9917 51.6436 35.3856 51.0666 34.7557 50.4386C30.4518 46.1696 24.9694 39.8543 24.101 34.5356C23.1818 28.9435 27.0993 23.7643 32.4885 22.5504C37.5141 21.4208 43.1544 24.301 44.969 29.1985C46.7331 33.9438 44.5702 39.9206 42.6178 44.3018L42.6184 44.3059Z" fill="#FFF932"/>
    <path d="M33.2971 27.0231C38.3487 25.781 42.7516 30.9072 40.8629 35.7736C38.8773 40.9006 31.7659 41.2496 29.2035 36.4023C27.2707 32.7484 29.2777 28.012 33.293 27.0237L33.2971 27.0231Z" fill="#FFF932"/>
  </g>
  <defs>
    <clipPath id="clip0_504_2813">
      <rect width="132.152" height="58.3929" fill="white" transform="translate(0 18.2925) rotate(-7.95639)"/>
    </clipPath>
  </defs>
</svg>