<svg xmlns="http://www.w3.org/2000/svg" width="102" height="24" viewBox="0 0 102 24" fill="none">
  <path d="M6.65171 3.96551C7.44813 3.47769 8.35831 3.23413 9.38136 3.23413C10.3376 3.23413 11.1805 3.44818 11.9101 3.87573C12.6397 4.30364 13.2058 4.9456 13.6085 5.80089H17.6592C17.0719 3.98702 16.0403 2.56676 14.5643 1.54009C13.088 0.513422 11.3692 0 9.40656 0C7.72901 0 6.21508 0.389511 4.86513 1.168C3.51483 1.94684 2.44978 3.03324 1.66998 4.42756C0.889833 5.82258 0.499756 7.40107 0.499756 9.16338C0.499756 10.9257 0.889833 12.5003 1.66998 13.8862C2.44978 15.2722 3.51483 16.3548 4.86513 17.1333C6.21508 17.9122 7.72901 18.301 9.40656 18.301C11.3855 18.301 13.1089 17.792 14.5769 16.774C16.0443 15.7561 17.0719 14.3316 17.6592 12.5003H13.6085C13.2058 13.3559 12.6397 14.0018 11.9101 14.438C11.1805 14.8747 10.3376 15.0926 9.38136 15.0926C8.35831 15.0926 7.44813 14.8489 6.65171 14.3612C5.85493 13.8734 5.23421 13.1806 4.78988 12.2821C4.34521 11.384 4.12313 10.3444 4.12313 9.16356C4.12313 7.96604 4.34521 6.92231 4.78988 6.032C5.23421 5.14258 5.85493 4.45351 6.65171 3.96587V3.96551Z" fill="black"/>
  <path d="M52.3948 3.70648C51.3883 3.70648 50.453 3.95359 49.5893 4.44763C48.7252 4.94203 48.0674 5.59785 47.6145 6.41563C47.1446 5.54648 46.4822 4.87821 45.6266 4.40905C44.7714 3.94061 43.7982 3.7063 42.7082 3.7063C41.8526 3.7063 41.0684 3.87679 40.3555 4.21723C39.6422 4.55839 39.0598 5.02701 38.6069 5.62292V3.91074H35.0845V18.0707H38.6069V10.2494C38.6069 9.14221 38.8874 8.29421 39.4498 7.70612C40.0116 7.11856 40.779 6.82452 41.752 6.82452C42.7082 6.82452 43.4631 7.11856 44.0166 7.70612C44.5702 8.29403 44.8468 9.14203 44.8468 10.2494V18.0707H48.3692V10.2494C48.3692 9.14221 48.6498 8.29421 49.2122 7.70612C49.774 7.11856 50.5329 6.82452 51.4891 6.82452C52.4453 6.82452 53.1999 7.11856 53.7535 7.70612C54.307 8.29403 54.5837 9.14203 54.5837 10.2494V18.0707H58.1061V9.76372C58.1061 7.85563 57.5819 6.3687 56.5335 5.30381C55.4851 4.2391 54.1058 3.70648 52.3948 3.70648Z" fill="black"/>
  <path d="M71.3095 4.57542C70.3447 3.97915 69.2674 3.68066 68.0764 3.68066C67.0533 3.68066 66.1431 3.89809 65.3467 4.3324C64.5499 4.76706 63.925 5.30822 63.4721 5.95551V3.91089H59.9497V23.1112H63.4721V16.0515C63.9584 16.6995 64.5918 17.236 65.3719 17.6618C66.1517 18.0876 67.0533 18.3011 68.0764 18.3011C69.2674 18.3011 70.3447 17.9943 71.3095 17.3808C72.2739 16.7674 73.0369 15.9029 73.5994 14.7866C74.1611 13.6707 74.4423 12.3884 74.4423 10.9399C74.4423 9.49133 74.1611 8.21773 73.5994 7.11889C73.0369 6.01951 72.2739 5.17222 71.3095 4.5756V4.57542ZM70.3284 13.1889C69.9844 13.8195 69.5317 14.3052 68.9699 14.6456C68.4075 14.9868 67.7997 15.1569 67.1455 15.1569C66.508 15.1569 65.9085 14.9909 65.3467 14.6584C64.7846 14.3264 64.3315 13.8451 63.9882 13.2145C63.6441 12.5843 63.4723 11.8432 63.4723 10.9905C63.4723 10.1379 63.6443 9.39764 63.9882 8.76689C64.3315 8.13666 64.7846 7.65506 65.3467 7.32262C65.9085 6.99053 66.508 6.82449 67.1455 6.82449C67.7997 6.82449 68.4075 6.98644 68.9699 7.31018C69.5317 7.63391 69.9844 8.1068 70.3284 8.72849C70.6721 9.35071 70.8442 10.0878 70.8442 10.9395C70.8442 11.8087 70.6721 12.5587 70.3284 13.1889Z" fill="black"/>
  <path d="M88.7107 3.91089H85.1629V11.7066C85.1629 12.8312 84.8862 13.6961 84.3327 14.3008C83.7792 14.9057 83.0158 15.208 82.0432 15.208C81.087 15.208 80.3324 14.9057 79.7789 14.3008C79.2253 13.6961 78.9487 12.8312 78.9487 11.7066V3.91089H75.4263V12.2176C75.4263 13.4787 75.6651 14.5653 76.1432 15.4766C76.6213 16.3884 77.2793 17.0782 78.1181 17.547C78.9569 18.0156 79.9213 18.2497 81.0116 18.2497C81.8671 18.2497 82.6595 18.075 83.3895 17.7258C83.9206 17.4718 84.3782 17.1473 84.7627 16.753C84.9064 16.6056 85.0385 16.4476 85.1629 16.2816C85.2357 16.1843 85.3787 15.9813 85.4165 15.9276C85.8017 16.8551 86.7964 18.1728 89.3447 18.1728L90.1621 15.0353H88.7109V3.91089H88.7107Z" fill="black"/>
  <path d="M101.258 11.7703C100.78 11.1997 100.214 10.7778 99.5598 10.5053C98.9056 10.2327 98.0752 9.9682 97.069 9.71273C96.079 9.45726 95.3494 9.20589 94.8797 8.95878C94.4102 8.71202 94.1754 8.34971 94.1754 7.87273C94.1754 7.4466 94.347 7.11451 94.6911 6.87575C95.0348 6.63718 95.5255 6.51806 96.163 6.51806C96.8506 6.51806 97.4001 6.68411 97.8113 7.01655C98.2219 7.34864 98.4529 7.79593 98.5031 8.35824H101.875C101.774 6.92713 101.229 5.78971 100.239 4.94633C99.2493 4.10295 97.9242 3.68091 96.2636 3.68091C95.1398 3.68091 94.1629 3.86882 93.3326 4.24322C92.5024 4.61833 91.8645 5.12926 91.4205 5.77691C90.9758 6.42455 90.7538 7.14046 90.7538 7.92393C90.7538 8.87824 90.9926 9.63646 91.4707 10.1988C91.9488 10.7611 92.5188 11.1789 93.1819 11.451C93.8443 11.7239 94.6953 11.9881 95.7355 12.2436C96.7419 12.5165 97.4755 12.7675 97.937 12.9975C98.3981 13.2278 98.6291 13.5726 98.6291 14.0327C98.6291 14.4589 98.4405 14.8082 98.063 15.0807C97.6855 15.3536 97.161 15.4894 96.4904 15.4894C95.8025 15.4894 95.2387 15.3106 94.7772 14.9527C94.3159 14.595 94.0621 14.1437 93.9953 13.5982H90.4475C90.4981 14.467 90.7769 15.2596 91.3052 15.9751C91.8335 16.691 92.5403 17.2574 93.446 17.6749C94.3516 18.0923 95.3745 18.3014 96.5156 18.3014C97.6227 18.3014 98.5911 18.1179 99.4215 17.7515C100.252 17.3854 100.889 16.8786 101.334 16.231C101.778 15.5833 102 14.8505 102 14.0327C101.984 13.0957 101.736 12.3417 101.258 11.7707L101.258 11.7703Z" fill="black"/>
  <path d="M32.6319 3.91089H29.0841V5.93009C28.6143 5.28262 27.99 4.74573 27.2095 4.3196C26.4299 3.894 25.5196 3.68066 24.4799 3.68066C23.2888 3.68066 22.2112 3.97897 21.2469 4.57542C20.282 5.17186 19.5188 6.02378 18.9572 7.13115C18.395 8.23924 18.1143 9.5084 18.1143 10.9397C18.1143 12.388 18.395 13.6705 18.9572 14.7866C19.5188 15.9025 20.282 16.7672 21.2469 17.3808C22.2112 17.9943 23.2804 18.3009 24.4547 18.3009C25.4947 18.3009 26.4131 18.0833 27.2095 17.649C27.8619 17.2929 28.8262 16.5774 29.3297 15.9568C29.7085 16.8853 30.6994 18.2238 33.2675 18.2238L34.0849 15.0864H32.6319V3.91053V3.91089ZM27.2223 14.6586C26.652 14.9907 26.04 15.1569 25.3855 15.1569C24.7478 15.1569 24.1486 14.987 23.5867 14.6456C23.0244 14.305 22.5717 13.8152 22.228 13.1761C21.8839 12.5372 21.7123 11.792 21.7123 10.9397C21.7123 10.0874 21.8839 9.35107 22.228 8.72866C22.5717 8.1068 23.0204 7.63391 23.5743 7.31C24.1276 6.9868 24.7314 6.82431 25.3855 6.82431C26.0397 6.82431 26.652 6.99053 27.2223 7.32298C27.7926 7.65506 28.2452 8.1324 28.5812 8.75426C28.9165 9.37631 29.0841 10.1216 29.0841 10.9907C29.0841 11.8599 28.9165 12.6053 28.5812 13.2275C28.2452 13.8496 27.7926 14.3262 27.2223 14.6586ZM29.0841 15.1571H29.1081C29.109 15.1639 29.1102 15.1713 29.1113 15.179L29.0841 15.1571Z" fill="black"/>
</svg>