<svg xmlns="http://www.w3.org/2000/svg" width="25" height="28" viewBox="0 0 25 28" fill="none">
  <path d="M22.2823 21.5768C21.1308 22.4699 18.4068 23.8938 14.2357 23.8353C10.3362 23.7806 6.8976 21.8393 4.99571 18.9827C3.70654 17.0462 2.98988 14.621 3.11881 12.1805C3.2436 9.81701 4.07737 7.81798 5.35264 6.27672C7.1077 4.15556 9.83315 2.58828 12.8571 2.35984C15.004 2.19764 16.8536 2.56654 18.5087 3.46891C24.1692 6.55987 23.1521 13.9965 17.434 15.3228C18.2023 14.5952 19.0296 13.4497 19.0296 11.8843C19.0296 9.84599 17.3715 8.18777 15.3333 8.18777C13.2951 8.18777 11.637 9.84599 11.637 11.8843C11.637 14.625 14.172 16.0826 14.4856 16.2523C14.4873 16.2532 14.4907 16.2552 14.4921 16.256L14.5216 16.2719C14.7926 16.4273 15.0819 16.563 15.3837 16.6817C17.4624 17.4991 20.1137 17.5032 21.2227 17.5032H22.2823V21.577V21.5768Z" fill="white"/>
  <path d="M20.7836 15.7269C22.7216 14.4445 24.0983 11.8969 24.0561 9.44989C23.9633 4.58583 20.1373 0.858798 14.1907 0.52257C13.5398 0.472447 12.8036 0.512812 12.1835 0.575207C10.3711 0.764612 8.65149 1.35308 7.04546 2.2837C3.06071 4.58731 0.400024 8.88833 0.400024 13.8065C0.400024 21.1562 6.35763 27.1144 13.7067 27.1144C17.6947 27.1144 21.2727 25.3735 23.7674 22.5135L24.0564 22.1718V15.7289C24.0564 15.7289 21.2594 15.7288 20.7836 15.7269ZM22.282 21.5768C21.1305 22.4699 18.4065 23.8938 14.2355 23.8354C10.3359 23.7806 6.89731 21.8393 4.99542 18.9827C3.70626 17.0462 2.98959 14.621 3.11853 12.1805C3.24332 9.81702 4.07708 7.81799 5.35235 6.27673C7.10742 4.15557 9.83287 2.58828 12.8568 2.35984C15.0037 2.19764 16.8533 2.56655 18.5084 3.46892C24.1689 6.55987 23.1518 13.9965 17.4338 15.3228C18.202 14.5952 19.0293 13.4497 19.0293 11.8844C19.0293 9.846 17.3712 8.18778 15.333 8.18778C13.2948 8.18778 11.6367 9.846 11.6367 11.8844C11.6367 14.625 14.1717 16.0826 14.4853 16.2524C14.487 16.2532 14.4904 16.2552 14.4918 16.256L14.5213 16.2719C14.7923 16.4273 15.0816 16.563 15.3834 16.6817C17.4621 17.4991 20.1134 17.5032 21.2224 17.5032H22.282V21.577V21.5768ZM17.2551 11.8842C17.2551 13.6586 15.333 14.6935 15.333 14.6935C15.333 14.6935 13.4109 13.6585 13.4109 11.8842C13.4109 10.8226 14.2714 9.96192 15.333 9.96192C16.3946 9.96192 17.2551 10.8226 17.2551 11.8842Z" fill="black"/>
</svg>