<svg xmlns="http://www.w3.org/2000/svg" width="216" height="32" viewBox="0 0 216 32" fill="none">
  <path d="M9.6411 0.850711L10.9584 1.048L10.1346 6.54865L16.7389 7.53778L16.5523 8.78389L9.94795 7.79476L8.80685 15.4138L16.9243 16.6295L16.7377 17.8756L0.894394 15.5028L1.08102 14.2567L7.48955 15.2165L9.6411 0.850711ZM27.8105 5.1918C29.2168 5.40242 30.3535 5.95488 31.2028 6.84651C32.0521 7.73814 32.4698 8.83814 32.4585 10.1287L31.0522 9.91808C31.0128 8.96575 30.6566 8.18437 30.0192 7.57929C29.3969 6.99467 28.5949 6.63794 27.598 6.48864C26.1205 6.26735 24.9039 6.61296 23.9482 7.52547C23.0566 8.37477 22.4935 9.58269 22.2562 11.167C22.0189 12.7513 22.1856 14.0686 22.7946 15.1062C23.4313 16.2026 24.4781 16.869 25.9734 17.093C26.9881 17.2449 27.8826 17.1059 28.6746 16.6785C29.5076 16.2208 30.1492 15.4615 30.5637 14.3951L31.97 14.6057C31.4639 16.0406 30.6319 17.099 29.459 17.7606C28.3653 18.3794 27.1317 18.5951 25.7788 18.3925C23.8028 18.0965 22.3884 17.2113 21.5327 15.7545C20.7474 14.4356 20.5138 12.8353 20.7965 10.9484C21.0791 9.06144 21.7917 7.5847 22.952 6.52084C24.2227 5.32789 25.8523 4.89853 27.8105 5.1918ZM39.8271 10.5771C41.1444 10.7744 42.055 11.2566 42.5919 12.0468C43.0353 12.732 43.1948 13.6114 43.0348 14.6794L42.1497 20.5895L40.8146 20.3896L41.0465 18.8408C40.6159 19.286 40.0739 19.6234 39.4563 19.8585C38.7238 20.131 37.929 20.2122 37.0746 20.0842C36.1489 19.9456 35.4537 19.6049 34.9712 19.0594C34.4735 18.4934 34.282 17.8277 34.394 17.0801C34.5513 16.0298 35.078 15.3078 36.0125 14.9018C36.8348 14.5153 37.9428 14.4082 39.334 14.5984L41.5467 14.8934L41.6187 14.4127C41.8507 12.864 41.1643 11.9786 39.5621 11.7386C38.8857 11.6373 38.3152 11.6793 37.8453 11.9001C37.322 12.113 36.9527 12.5127 36.7223 13.0788L35.332 12.7614C35.6718 11.8294 36.2617 11.1715 37.0787 10.8207C37.8191 10.4947 38.7234 10.4118 39.8271 10.5771ZM41.3868 15.9615L39.2631 15.6798C37.1928 15.4061 36.059 15.928 35.859 17.2631C35.795 17.6903 35.9046 18.0525 36.218 18.3907C36.534 18.711 36.9755 18.9228 37.5451 19.0081C38.4174 19.1387 39.2255 18.9685 39.9873 18.5002C40.7286 18.047 41.1628 17.4568 41.2695 16.7447L41.3868 15.9615ZM51.0348 12.2556C52.4411 12.4663 53.3171 13.1799 53.6573 14.4321C54.104 13.8802 54.5979 13.4991 55.1363 13.3067C55.624 13.0886 56.1794 13.0261 56.8202 13.1221C57.7815 13.2661 58.5017 13.6834 59.0163 14.3793C59.4926 15.0876 59.6699 15.9696 59.5126 17.0199L58.6088 23.0546L57.1847 22.8413L58.0538 17.038C58.1765 16.2192 58.0891 15.5873 57.8095 15.145C57.5175 14.6644 56.9772 14.3833 56.1939 14.266C55.5887 14.1753 55.0404 14.3116 54.5795 14.7158C54.0829 15.1147 53.7991 15.6728 53.6872 16.4204L52.8233 22.1881L51.3992 21.9748L52.2684 16.1716C52.5137 14.5338 51.9216 13.6261 50.5153 13.4155C49.8566 13.3168 49.2852 13.4861 48.778 13.9561C48.2761 14.3906 47.9692 14.9816 47.8599 15.7115L47.0201 21.319L45.5959 21.1057L46.9743 11.9023L48.3984 12.1156L48.2145 13.3439C49.058 12.451 50.0023 12.101 51.0348 12.2556ZM67.8833 14.779C69.2006 14.9763 70.1789 15.6143 70.7951 16.7258C71.356 17.7198 71.5441 18.8947 71.3361 20.2832C71.1335 21.6361 70.6095 22.7043 69.7998 23.493C68.9081 24.3423 67.8188 24.6888 66.5015 24.4915C65.1842 24.2942 64.2655 23.5014 63.7454 22.113L62.9669 27.3111L61.5427 27.0978L63.449 14.3697L64.7841 14.5697L64.5575 16.0828C65.3921 15.0066 66.4948 14.5711 67.8833 14.779ZM67.5293 15.9273C66.6037 15.7886 65.8205 16.0354 65.2127 16.6906C64.6539 17.2621 64.2945 18.0819 64.1399 19.1144L64.1132 19.2924C63.9532 20.3605 64.0745 21.2523 64.5099 21.9909C64.9124 22.7064 65.5203 23.1433 66.3748 23.2713C67.3717 23.4206 68.1727 23.1765 68.7902 22.5774C69.3491 22.0059 69.7111 21.1682 69.8764 20.0646C70.039 18.9787 69.9383 18.0717 69.607 17.3669C69.2027 16.5419 68.5084 16.0739 67.5293 15.9273ZM75.1257 16.1185L76.5498 16.3318L75.7073 21.9571C75.5767 22.8294 75.656 23.5147 75.9659 23.9979C76.2757 24.4811 76.8463 24.8032 77.683 24.9285C78.2882 25.0191 78.8774 24.8526 79.4274 24.4617C80.0005 24.0379 80.3991 23.4424 80.6232 22.6751L81.463 17.0677L82.8871 17.281L81.5087 26.4843L80.0846 26.271L80.2979 24.8469C79.385 25.8386 78.3028 26.259 77.0567 26.0723C74.8137 25.7364 73.8993 24.3072 74.2725 21.815L75.1257 16.1185ZM89.628 18.0357C91.9065 18.377 93.0113 19.5071 92.9726 21.467L91.5841 21.259C91.5448 20.6707 91.3774 20.2088 91.0587 19.9063C90.7097 19.5628 90.1614 19.3351 89.4315 19.2258C88.7907 19.1298 88.2762 19.1619 87.8829 19.3578C87.4566 19.5306 87.2128 19.8217 87.1515 20.2311C87.0928 20.6228 87.2914 20.9983 87.7854 21.3453C88.0997 21.5562 88.7112 21.848 89.5995 22.2358C90.6632 22.6682 91.4038 23.0703 91.8392 23.4449C92.4997 24.0171 92.7802 24.6961 92.6602 25.4972C92.3776 27.3841 90.9341 28.1508 88.3351 27.7615C85.9141 27.3989 84.7568 26.1335 84.8604 23.9832L86.249 24.1911C86.2465 24.937 86.4362 25.4932 86.7798 25.8723C87.1288 26.2158 87.6949 26.4462 88.4782 26.5635C90.1159 26.8088 91.0325 26.4 91.1872 25.3675C91.2645 24.8513 91.0205 24.4143 90.4935 24.0442C90.2122 23.8565 89.5829 23.562 88.6234 23.1635C87.5775 22.7338 86.852 22.3522 86.4674 22.0034C85.8193 21.4695 85.5691 20.8314 85.6864 20.0481C85.8037 19.2648 86.2326 18.7103 86.9962 18.3514C87.7063 17.9845 88.5955 17.8811 89.628 18.0357ZM106.081 14.999L107.358 15.0434L107.24 18.4433L109.327 18.5157L109.284 19.757L107.197 19.6846L107.149 21.0697C107.999 21.9998 108.846 23.0378 109.689 24.1657L108.913 25.2374C108.215 24.0785 107.617 23.1572 107.101 22.4549L106.788 31.4675L105.511 31.4232L105.822 22.4645C105.187 24.1356 104.396 25.657 103.448 27.029L102.939 25.6065C104.295 23.8885 105.283 21.8875 105.92 19.6402L103.725 19.5641L103.768 18.3228L105.963 18.399L106.081 14.999ZM111.106 23.3143L112.283 23.6253C111.62 26.1238 110.7 28.2532 109.557 30.0506L108.467 29.2924C109.645 27.5142 110.524 25.5275 111.106 23.3143ZM117.621 23.4503C118.306 25.5093 118.878 27.7085 119.338 30.0298L118.15 30.5109C117.643 27.9899 117.072 25.7547 116.438 23.7875L117.621 23.4503ZM113.306 31.5136L111.472 31.4499L111.262 30.2359C111.836 30.2918 112.374 30.3465 112.896 30.3646C113.382 30.3815 113.643 30.1204 113.661 29.5987L113.928 21.9173L109.538 21.765L109.581 20.5238L119.673 20.874L119.63 22.1152L115.223 21.9623L114.945 29.9675C114.908 31.0288 114.35 31.5498 113.306 31.5136ZM110.686 16.1855L118.89 16.4701L118.847 17.6934L110.644 17.4087L110.686 16.1855ZM139.152 26.1231C139.081 27.9649 138.889 29.1819 138.575 29.7561C138.26 30.3123 137.591 30.6338 136.585 30.6837L131.928 30.9142C130.814 30.9693 130.228 30.4216 130.171 29.271L129.782 21.4147L136.182 21.0978L135.975 16.909L128.712 17.2685L128.649 16.0101L137.153 15.5891L137.484 22.2769L131.102 22.5928L131.406 28.7413C131.437 29.3526 131.758 29.661 132.37 29.6488L136.29 29.4547C136.991 29.42 137.428 29.1461 137.601 28.6509C137.757 28.1566 137.836 27.1975 137.855 25.7548L139.152 26.1231ZM124.138 15.5305C125.406 16.3869 126.476 17.253 127.35 18.1469L126.513 19.0895C125.714 18.2459 124.625 17.3627 123.283 16.4559L124.138 15.5305ZM122.298 20.9561L126.182 20.7639L126.582 28.854C127.256 28.2799 127.979 27.5954 128.735 26.8371L129.126 28.1874C128.027 29.2871 126.832 30.2654 125.579 31.1564L125.017 30.0128C125.258 29.7846 125.372 29.5267 125.358 29.239L125.002 22.0658L122.36 22.1966L122.298 20.9561ZM150.054 22.4476L150.119 23.76C149.093 24.1532 148.03 24.5302 146.895 24.8928L147.095 28.9378C147.147 29.9806 146.615 30.5295 145.519 30.5838L143.523 30.6826L143.192 29.4555C143.824 29.4782 144.437 29.4839 145.03 29.4546C145.534 29.4296 145.773 29.1655 145.749 28.6801L145.58 25.2643C144.442 25.5729 143.285 25.8645 142.072 26.1228L141.827 24.8193C143.129 24.5386 144.359 24.2614 145.515 23.9519L145.339 20.4102L141.636 20.5936L141.575 19.3531L145.278 19.1697L145.159 16.7607C144.216 17.0056 143.235 17.2164 142.217 17.4109L141.886 16.1838C144.425 15.7698 146.664 15.1363 148.604 14.2653L149.096 15.4664C148.283 15.795 147.397 16.1092 146.475 16.4072L146.608 19.1039L150.923 18.8903C150.743 17.4394 150.61 15.842 150.523 14.0802L151.817 14.0161C151.925 15.831 152.058 17.4284 152.236 18.8253L157.791 18.5503L157.852 19.7908L152.405 20.0604C152.595 21.3486 152.81 22.4193 153.069 23.2895C153.2 23.7516 153.347 24.1589 153.492 24.5482C154.303 23.4627 155.018 22.2379 155.599 20.8755L156.743 21.4136C156 23.1445 155.1 24.6308 154.027 25.8914C154.309 26.4902 154.587 26.9991 154.895 27.3983C155.513 28.2328 156.002 28.6591 156.344 28.6422C156.703 28.6064 156.958 27.5845 157.146 25.5567L158.308 26.0939C158.003 28.6682 157.437 29.9758 156.61 30.0167C155.873 30.0532 155.073 29.5521 154.193 28.5144C153.809 28.0468 153.439 27.4884 153.12 26.8554C151.882 28.0701 150.453 29.042 148.849 29.7702L148.092 28.6902C149.822 27.9558 151.303 26.9273 152.554 25.6219C152.308 25.0213 152.077 24.3659 151.863 23.6737C151.56 22.6614 151.304 21.4846 151.092 20.1254L146.67 20.3444L146.83 23.5804C147.983 23.2169 149.064 22.839 150.054 22.4476ZM153.805 14.116C155.142 14.9148 156.28 15.7055 157.222 16.5239L156.333 17.5051C155.501 16.7173 154.396 15.8709 152.983 14.9857L153.805 14.116ZM167.107 16.341L167.714 28.6019L166.455 28.6642L166.405 27.6395L163.133 27.8015L163.209 29.3476L161.951 29.4099L161.318 16.6275L162.99 16.5448C163.3 15.5202 163.5 14.465 163.608 13.3783L164.911 13.494C164.748 14.5654 164.527 15.5676 164.212 16.4843L167.107 16.341ZM163.073 26.597L166.345 26.435L166.15 22.4978L162.878 22.6598L163.073 26.597ZM162.82 21.4912L166.092 21.3292L165.909 17.6258L162.637 17.7877L162.82 21.4912ZM170.442 20.357C171.81 21.7851 172.846 23.0494 173.584 24.1302L172.595 24.9001C171.799 23.75 170.744 22.4686 169.431 21.0558L170.442 20.357ZM176.402 15.8988C176.698 21.8675 176.791 25.5754 176.681 26.9866C176.569 28.3618 175.777 29.1039 174.266 29.1787C173.907 29.1965 173.294 29.1908 172.429 29.1975L172.065 28.0261C172.822 28.0247 173.47 28.0106 174.027 27.983C174.872 27.9412 175.334 27.4498 175.433 26.5258C175.491 25.5136 175.409 22.3999 175.188 17.2205L170.244 17.4652C169.797 18.6227 169.254 19.6769 168.599 20.6284L167.775 19.642C168.946 17.8178 169.684 15.6186 170.025 13.0426L171.31 13.1412C171.147 14.2126 170.945 15.2318 170.667 16.1827L176.402 15.8988ZM180.196 16.0715L182.641 15.9504L182.47 12.4987L183.782 12.4337L183.953 15.8855L185.823 15.7929L185.884 17.0334L184.014 17.1259L184.087 18.6001C184.735 19.307 185.385 20.0677 186.039 20.8825C187.058 19.6425 187.922 18.158 188.613 16.4657L189.719 16.9517C188.979 18.7545 188.083 20.3127 187.031 21.6443L186.231 21.1252L186.674 21.698L186.023 22.7575C185.296 21.532 184.67 20.5357 184.145 19.7687L184.592 28.7937L183.28 28.8586L182.827 19.7258C182.321 21.517 181.609 23.1382 180.709 24.6245L180.1 23.249C181.345 21.4572 182.219 19.4496 182.684 17.1918L180.257 17.312L180.196 16.0715ZM186.232 14.6012L190.637 14.3831C190.272 13.5722 189.892 12.816 189.463 12.1524L190.765 11.8717C191.16 12.5731 191.561 13.4002 191.931 14.3191L195.904 14.1224L195.967 15.3808L186.294 15.8597L186.232 14.6012ZM193.248 16.1642C194.659 17.7343 195.755 19.1219 196.535 20.3088L195.493 21.0993C194.69 19.8054 193.611 18.399 192.272 16.8433L193.248 16.1642ZM192.858 19.5717L194.092 19.7449C193.829 21.7043 193.28 23.3714 192.411 24.7301C193.612 25.6979 195.129 26.4878 196.96 27.082L196.37 28.2646C194.463 27.6021 192.89 26.7789 191.668 25.758C190.476 27.1507 188.923 28.1828 186.973 28.838L186.178 27.7059C188.095 27.1064 189.597 26.1489 190.687 24.8695C189.47 23.5781 188.655 22.0505 188.243 20.2687L189.359 19.8711C189.668 21.3876 190.364 22.7048 191.429 23.8415C192.163 22.6338 192.651 21.2039 192.858 19.5717ZM214.545 11.6857L215.321 27.3625L214.026 27.4266L213.991 26.7075L201.874 27.3074L201.909 28.0265L200.615 28.0906L199.839 12.4138L214.545 11.6857ZM201.817 26.1568L213.934 25.5569L213.309 12.9364L201.192 13.5362L201.817 26.1568ZM203.557 15.0772L211.126 14.7025L211.183 15.8531L203.614 16.2278L203.557 15.0772ZM202.684 18.2021L212.285 17.7269L212.342 18.8775L209.465 19.0199L209.648 22.7053C209.669 23.1368 209.859 23.3437 210.255 23.3241L210.938 23.2903C211.19 23.2778 211.367 23.215 211.505 23.1C211.715 22.9634 211.81 22.328 211.826 21.2098L212.923 21.516C212.845 22.8534 212.705 23.6714 212.466 23.9355C212.243 24.1628 211.835 24.2912 211.242 24.3385L209.93 24.4035C209.48 24.4257 209.132 24.2988 208.886 24.0587C208.62 23.7835 208.495 23.4473 208.474 23.0338L208.279 19.0786L206.571 19.1632C206.482 20.6454 206.196 21.7949 205.698 22.6486C205.133 23.6137 204.216 24.38 202.984 24.9816L202.321 23.9691C203.414 23.4825 204.193 22.8312 204.675 22.0144C205.073 21.3098 205.315 20.3787 205.402 19.221L202.741 19.3527L202.684 18.2021Z" fill="black"/>
</svg>