<svg xmlns="http://www.w3.org/2000/svg" width="263" height="39" viewBox="0 0 263 39" fill="none">
  <path d="M11.2486 1.3739L12.8568 1.62658L11.8017 8.3422L19.8648 9.60902L19.6258 11.1304L11.5627 9.86354L10.1013 19.1654L20.0117 20.7225L19.7727 22.2438L0.429958 19.2048L0.668979 17.6835L8.493 18.9128L11.2486 1.3739ZM33.417 6.83886C35.1339 7.10861 36.5184 7.79379 37.5486 8.89098C38.5787 9.98817 39.0796 11.3362 39.0545 12.9135L37.3375 12.6437C37.2978 11.4794 36.8693 10.5213 36.0956 9.77619C35.3401 9.05622 34.3631 8.6132 33.146 8.42198C31.3421 8.13857 29.8522 8.5503 28.6761 9.65719C27.5789 10.6874 26.8801 12.1587 26.5762 14.093C26.2723 16.0273 26.4645 17.6386 27.1998 18.9122C27.9682 20.2578 29.2418 21.0814 31.0674 21.3683C32.3062 21.5629 33.4007 21.4008 34.3724 20.8854C35.3945 20.3333 36.1853 19.4109 36.7012 18.1112L38.4182 18.381C37.787 20.1302 36.7609 21.4165 35.3216 22.2148C33.9794 22.9615 32.4699 23.2143 30.8182 22.9548C28.4058 22.5758 26.6848 21.4814 25.6518 19.6934C24.7035 18.0746 24.4321 16.1168 24.7941 13.813C25.156 11.5093 26.0399 9.71066 27.4674 8.4206C29.0309 6.97373 31.0263 6.46325 33.417 6.83886ZM48.0564 13.5261C49.6647 13.7787 50.7734 14.3761 51.4226 15.3466C51.9585 16.188 52.1458 17.2641 51.9409 18.5681L50.8073 25.7836L49.1772 25.5275L49.4743 23.6367C48.944 24.1769 48.2787 24.5846 47.5218 24.8665C46.6242 25.1932 45.6521 25.2854 44.6089 25.1215C43.4788 24.9439 42.6321 24.5214 42.0471 23.8505C41.4438 23.1544 41.2156 22.3391 41.359 21.4263C41.5605 20.144 42.2106 19.2663 43.3562 18.7782C44.3647 18.3131 45.7199 18.192 47.4185 18.4366L50.1203 18.8165L50.2125 18.2297C50.5095 16.3389 49.6784 15.2507 47.7224 14.9434C46.8965 14.8136 46.1988 14.8599 45.6226 15.1257C44.9812 15.3812 44.5263 15.8665 44.2398 16.5564L42.5433 16.1563C42.9668 15.0202 43.6936 14.2213 44.6952 13.7997C45.603 13.4078 46.7089 13.3143 48.0564 13.5261ZM49.9154 20.1205L47.3223 19.7576C44.7944 19.405 43.4041 20.0328 43.148 21.6628C43.0661 22.1844 43.1968 22.6281 43.5768 23.0441C43.9603 23.4384 44.498 23.7011 45.1935 23.8103C46.2584 23.9777 47.2476 23.7767 48.1827 23.211C49.0927 22.6636 49.6286 21.9461 49.7652 21.0768L49.9154 20.1205ZM61.7396 15.6759C63.4565 15.9456 64.5208 16.8255 64.9258 18.3589C65.4765 17.6883 66.0835 17.2269 66.7432 16.9965C67.3412 16.7341 68.0205 16.6627 68.8029 16.7856C69.9765 16.97 70.853 17.4863 71.4759 18.3413C72.0518 19.2112 72.2608 20.2908 72.0593 21.573L70.9018 28.9407L69.1631 28.6675L70.2763 21.5824C70.4333 20.5827 70.3321 19.8096 69.9943 19.2666C69.6416 18.6767 68.9837 18.3283 68.0274 18.1781C67.2885 18.062 66.6172 18.2238 66.0503 18.7137C65.4399 19.1969 65.0882 19.8765 64.9448 20.7893L63.8384 27.8309L62.0998 27.5578L63.2129 20.4727C63.5271 18.4732 62.8114 17.3586 61.0944 17.0889C60.2903 16.9625 59.5905 17.1643 58.9665 17.7344C58.3493 18.261 57.9689 18.9807 57.8289 19.8717L56.7533 26.7178L55.0147 26.4446L56.78 15.2084L58.5187 15.4816L58.2831 16.9812C59.3219 15.8973 60.479 15.4778 61.7396 15.6759ZM82.3095 18.9077C83.9178 19.1603 85.1079 19.9486 85.8512 21.3125C86.5281 22.5323 86.7476 23.9698 86.4813 25.665C86.2218 27.3168 85.572 28.6177 84.5754 29.5746C83.4782 30.6048 82.1438 31.0187 80.5355 30.766C78.9273 30.5133 77.8114 29.5363 77.1879 27.8349L76.1908 34.1811L74.4522 33.9079L76.8936 18.3685L78.5236 18.6246L78.2334 20.472C79.2629 19.1639 80.6143 18.6413 82.3095 18.9077ZM81.8668 20.3079C80.7367 20.1304 79.7773 20.425 79.0288 21.2205C78.3408 21.9141 77.8944 22.9129 77.6963 24.1735L77.6622 24.3908C77.4573 25.6948 77.5977 26.7858 78.1234 27.6924C78.609 28.5704 79.3482 29.1097 80.3914 29.2736C81.6085 29.4648 82.5896 29.1735 83.3496 28.4467C84.0376 27.7531 84.4875 26.7325 84.6992 25.385C84.9074 24.0593 84.7922 22.95 84.3936 22.0856C83.9067 21.0738 83.0622 20.4957 81.8668 20.3079ZM91.1494 20.6083L92.888 20.8814L91.809 27.7492C91.6417 28.8141 91.7327 29.6524 92.1072 30.2457C92.4816 30.839 93.1762 31.2377 94.1976 31.3982C94.9366 31.5142 95.6581 31.3158 96.3337 30.843C97.0378 30.33 97.5302 29.6057 97.8109 28.6699L98.8865 21.8239L100.625 22.097L98.8598 33.3332L97.1211 33.06L97.3943 31.3214C96.2698 32.5254 94.9434 33.0297 93.4221 32.7907C90.6837 32.3604 89.5787 30.6056 90.0567 27.563L91.1494 20.6083ZM108.857 23.0786C111.639 23.5157 112.979 24.9066 112.915 27.3016L111.22 27.0352C111.177 26.3159 110.976 25.7499 110.589 25.3773C110.166 24.9545 109.498 24.6713 108.607 24.5313C107.824 24.4084 107.195 24.4432 106.713 24.6792C106.19 24.8866 105.89 25.2402 105.811 25.7401C105.736 26.2182 105.975 26.679 106.576 27.1074C106.958 27.3679 107.703 27.7299 108.786 28.2117C110.082 28.7494 110.983 29.2474 111.512 29.709C112.314 30.4141 112.651 31.2465 112.498 32.2245C112.136 34.5282 110.365 35.4526 107.192 34.954C104.236 34.4897 102.833 32.933 102.978 30.3057L104.673 30.5721C104.664 31.4836 104.891 32.1651 105.307 32.6314C105.731 33.0543 106.421 33.3408 107.377 33.4911C109.377 33.8052 110.5 33.3137 110.698 32.0532C110.797 31.4229 110.503 30.8867 109.862 30.4297C109.52 30.1978 108.754 29.8324 107.584 29.3369C106.31 28.8026 105.426 28.3298 104.96 27.9001C104.172 27.2419 103.872 26.4598 104.022 25.5036C104.172 24.5473 104.701 23.8732 105.638 23.4413C106.509 22.9992 107.597 22.8806 108.857 23.0786ZM128.323 18.156L129.884 18.0874L130.066 22.2414L132.616 22.1293L132.682 23.6459L130.133 23.7579L130.207 25.4503C131.333 26.5019 132.464 27.6854 133.6 28.9787L132.757 30.3591C131.795 29.014 130.978 27.9489 130.282 27.1427L130.766 38.154L129.205 38.2226L128.724 27.2772C128.112 29.3741 127.294 31.3039 126.27 33.0666L125.513 31.3822C127.001 29.1587 128.013 26.6258 128.572 23.8265L125.891 23.9444L125.824 22.4279L128.506 22.31L128.323 18.156ZM135.244 27.8054L136.709 28.0713C136.141 31.1793 135.224 33.8621 134.003 36.1619L132.602 35.3427C133.867 33.0629 134.748 30.5578 135.244 27.8054ZM143.195 27.3458C144.227 29.7888 145.135 32.4135 145.919 35.1978L144.518 35.898C143.658 32.8748 142.748 30.2062 141.787 27.8701L143.195 27.3458ZM138.712 37.5845L136.471 37.6831L136.098 36.224C136.803 36.2371 137.465 36.252 138.102 36.224C138.695 36.1979 138.989 35.8547 138.961 35.2173L138.548 25.8324L133.185 26.0681L133.119 24.5516L145.449 24.0096L145.515 25.5261L140.131 25.7628L140.561 35.5434C140.618 36.8401 139.987 37.5285 138.712 37.5845ZM134.049 19.1595L144.071 18.719L144.137 20.2136L134.114 20.6541L134.049 19.1595ZM169.488 30.3521C169.389 32.6026 169.146 34.0887 168.759 34.7884C168.37 35.4661 167.55 35.8545 166.319 35.9086L160.627 36.1588C159.264 36.2187 158.552 35.5453 158.49 34.1387L158.068 24.534L165.892 24.19L165.667 19.069L156.788 19.4593L156.72 17.9208L167.116 17.4638L167.476 25.6399L159.673 25.9829L160.004 33.4996C160.036 34.2469 160.427 34.6261 161.176 34.6152L165.967 34.4046C166.824 34.3669 167.36 34.0351 167.576 33.431C167.77 32.8279 167.872 31.6563 167.905 29.8932L169.488 30.3521ZM151.21 17.3042C152.754 18.3594 154.056 19.4252 155.117 20.5237L154.088 21.67C153.118 20.6336 151.793 19.5467 150.158 18.4294L151.21 17.3042ZM148.924 23.9229L153.672 23.7142L154.106 33.6047C154.935 32.9076 155.823 32.0758 156.751 31.1542L157.22 32.8072C155.87 34.1438 154.403 35.3313 152.865 36.4119L152.186 35.0104C152.482 34.7331 152.623 34.4186 152.607 34.067L152.222 25.2974L148.991 25.4394L148.924 23.9229ZM182.837 25.9336L182.908 27.5381C181.651 28.0117 180.35 28.4653 178.96 28.9007L179.177 33.846C179.233 35.1207 178.58 35.7881 177.239 35.847L174.8 35.9542L174.403 34.4522C175.175 34.4843 175.925 34.4954 176.65 34.4635C177.265 34.4365 177.559 34.1153 177.533 33.5218L177.35 29.3459C175.957 29.7154 174.541 30.0639 173.057 30.3714L172.766 28.7766C174.359 28.4423 175.864 28.1119 177.279 27.7414L177.089 23.4116L172.561 23.6106L172.495 22.0941L177.022 21.8951L176.893 18.9499C175.739 19.2429 174.538 19.4938 173.293 19.7247L172.897 18.2227C176.003 17.7338 178.744 16.9747 181.12 15.9234L181.713 17.3947C180.718 17.7908 179.633 18.1688 178.504 18.5268L178.649 21.8236L183.924 21.5917C183.714 19.8172 183.562 17.864 183.467 15.7101L185.049 15.6405C185.169 17.8594 185.321 19.8126 185.528 21.5212L192.32 21.2227L192.386 22.7392L185.727 23.0319C185.95 24.6076 186.206 25.9177 186.517 26.983C186.674 27.5487 186.85 28.0474 187.025 28.5242C188.024 27.2031 188.905 25.7109 189.625 24.0497L191.02 24.7151C190.099 26.8256 188.99 28.636 187.67 30.1695C188.011 30.9032 188.346 31.5271 188.72 32.0171C189.47 33.0412 190.065 33.5655 190.483 33.5472C190.922 33.5059 191.241 32.2587 191.485 29.7816L192.901 30.446C192.511 33.5902 191.81 35.1845 190.799 35.2289C189.898 35.2685 188.924 34.6507 187.855 33.3764C187.389 32.8023 186.941 32.1174 186.554 31.3416C185.034 32.8178 183.28 33.9959 181.314 34.8751L180.397 33.5501C182.517 32.6642 184.334 31.4172 185.871 29.8301C185.575 29.0944 185.297 28.2919 185.04 27.4443C184.677 26.2051 184.371 24.7651 184.122 23.1024L178.715 23.3401L178.889 27.2963C180.302 26.8598 181.625 26.4053 182.837 25.9336ZM187.478 15.776C189.107 16.7614 190.493 17.7355 191.638 18.7422L190.545 19.9353C189.534 18.9668 188.189 17.9249 186.467 16.8334L187.478 15.776ZM203.721 18.5854L204.38 33.575L202.841 33.6426L202.786 32.3898L198.786 32.5656L198.869 34.4558L197.331 34.5234L196.644 18.8965L198.688 18.8067C199.073 17.5565 199.325 16.2682 199.465 14.9408L201.057 15.0911C200.85 16.3994 200.573 17.6227 200.182 18.741L203.721 18.5854ZM198.721 31.0931L202.721 30.9172L202.51 26.1039L198.51 26.2797L198.721 31.0931ZM198.447 24.8511L202.447 24.6753L202.248 20.1476L198.248 20.3235L198.447 24.8511ZM207.769 23.5164C209.432 25.2711 210.689 26.8234 211.584 28.1493L210.37 29.0836C209.405 27.6726 208.125 26.0993 206.529 24.3637L207.769 23.5164ZM215.085 18.1079C215.406 25.4049 215.495 29.9374 215.35 31.6614C215.204 33.3414 214.231 34.243 212.384 34.3242C211.945 34.3435 211.196 34.3324 210.139 34.3348L209.701 32.9006C210.626 32.904 211.418 32.8912 212.1 32.8613C213.133 32.8159 213.701 32.2183 213.828 31.0897C213.905 29.8531 213.826 26.0469 213.592 19.7151L207.548 19.9807C206.993 21.3924 206.323 22.6771 205.515 23.8357L204.515 22.6245C205.959 20.4029 206.876 17.7201 207.31 14.5739L208.879 14.7032C208.673 16.0115 208.419 17.2558 208.074 18.4161L215.085 18.1079ZM219.72 18.3446L222.709 18.2133L222.523 13.9933L224.128 13.9228L224.313 18.1427L226.599 18.0423L226.666 19.5588L224.38 19.6593L224.459 21.4615C225.246 22.3298 226.036 23.264 226.828 24.2642C228.083 22.7556 229.149 20.9471 230.005 18.8835L231.353 19.4849C230.437 21.6832 229.331 23.5816 228.037 25.202L227.062 24.5622L227.599 25.2653L226.797 26.5558C225.916 25.053 225.158 23.8311 224.522 22.8901L225.007 33.9235L223.402 33.994L222.912 22.8288C222.281 25.0146 221.399 26.9912 220.289 28.8017L219.555 27.1163C221.088 24.9349 222.17 22.487 222.753 19.7308L219.786 19.8612L219.72 18.3446ZM227.108 16.5885L232.492 16.3518C232.052 15.3582 231.593 14.4315 231.073 13.6175L232.666 13.2832C233.144 14.1431 233.629 15.1568 234.075 16.2823L238.932 16.0688L239 17.6073L227.175 18.127L227.108 16.5885ZM235.672 18.5463C237.386 20.4749 238.716 22.1781 239.661 23.634L238.382 24.5931C237.409 23.0063 236.1 21.2801 234.475 19.3697L235.672 18.5463ZM235.172 22.7083L236.679 22.9283C236.344 25.3213 235.663 27.3552 234.59 29.0099C236.052 30.2009 237.901 31.1766 240.135 31.9152L239.406 33.3566C237.079 32.534 235.163 31.5172 233.676 30.2612C232.209 31.9553 230.304 33.2062 227.917 33.9938L226.953 32.6048C229.299 31.885 231.142 30.725 232.483 29.1686C231.004 27.582 230.019 25.7095 229.527 23.529L230.893 23.0505C231.261 24.9062 232.103 26.5207 233.397 27.9172C234.301 26.4461 234.907 24.7018 235.172 22.7083ZM261.731 13.2168L262.573 32.3823L260.991 32.4519L260.952 31.5727L246.139 32.2239L246.177 33.103L244.595 33.1726L243.752 14.0071L261.731 13.2168ZM246.077 30.8172L260.89 30.1661L260.212 14.737L245.399 15.3881L246.077 30.8172ZM248.279 17.2875L257.532 16.8808L257.594 18.2874L248.341 18.6941L248.279 17.2875ZM247.191 21.1009L258.928 20.585L258.99 21.9917L255.473 22.1462L255.671 26.6519C255.694 27.1794 255.926 27.4335 256.409 27.4122L257.244 27.3755C257.552 27.362 257.769 27.2864 257.939 27.1468C258.196 26.9813 258.316 26.2053 258.344 24.8388L259.682 25.2204C259.578 26.8545 259.401 27.8532 259.107 28.1745C258.833 28.4508 258.333 28.6049 257.609 28.6587L256.005 28.7293C255.455 28.7534 255.03 28.5959 254.731 28.3008C254.407 27.9627 254.257 27.5509 254.235 27.0453L254.022 22.21L251.934 22.3018C251.816 24.1127 251.459 25.5158 250.844 26.5558C250.147 27.7315 249.021 28.6619 247.511 29.3889L246.708 28.1469C248.048 27.5595 249.004 26.7688 249.599 25.7737C250.089 24.9153 250.392 23.779 250.506 22.3646L247.253 22.5076L247.191 21.1009Z" fill="black"/>
</svg>