<svg xmlns="http://www.w3.org/2000/svg" width="26" height="26" viewBox="0 0 26 26" fill="none">
  <path d="M10.9538 3.16105L5.593 7.83017C5.54392 7.87191 5.4814 7.89486 5.41675 7.89486H4.06258C3.01554 7.89486 2.16675 8.73693 2.16675 9.77568V16.2242C2.16675 17.263 3.01554 18.1051 4.06258 18.1051H5.41675C5.4814 18.1051 5.54392 18.128 5.593 18.1697L10.9538 22.8388C11.7488 23.5148 12.9456 23.4234 13.627 22.6348C13.9215 22.2939 14.0834 21.8597 14.0834 21.4107V4.58908C14.0834 3.55033 13.2346 2.70825 12.1876 2.70825C11.735 2.70825 11.2974 2.86886 10.9538 3.16105ZM6.81688 16.6515C6.42025 16.3297 5.92556 16.1551 5.41675 16.1551H4.11675V9.84486H5.41675C5.92557 9.84486 6.42025 9.67022 6.81686 9.34839L12.1334 4.71426V21.2855L6.81688 16.6515Z" fill="black"/>
  <path d="M23.5595 9.37508C23.1793 8.99494 22.5466 9.01137 22.1461 9.41179L19.9339 11.6225L17.7214 9.41141C17.321 9.01099 16.6883 8.99455 16.3081 9.3747C15.928 9.75484 15.9444 10.3876 16.3448 10.788L18.5567 12.9999L16.346 15.212C15.9455 15.6124 15.9291 16.2452 16.3093 16.6253C16.6894 17.0055 17.3222 16.989 17.7226 16.5886L19.934 14.3772L22.145 16.5882C22.5454 16.9886 23.1782 17.0051 23.5583 16.6249C23.9385 16.2448 23.922 15.612 23.5216 15.2116L21.3114 12.9998L23.5228 10.7884C23.9232 10.388 23.9396 9.75523 23.5595 9.37508Z" fill="black"/>
  <path d="M10.9538 3.16105L5.593 7.83017C5.54392 7.87191 5.4814 7.89486 5.41675 7.89486H4.06258C3.01554 7.89486 2.16675 8.73693 2.16675 9.77568V16.2242C2.16675 17.263 3.01554 18.1051 4.06258 18.1051H5.41675C5.4814 18.1051 5.54392 18.128 5.593 18.1697L10.9538 22.8388C11.7488 23.5148 12.9456 23.4234 13.627 22.6348C13.9215 22.2939 14.0834 21.8597 14.0834 21.4107V4.58908C14.0834 3.55033 13.2346 2.70825 12.1876 2.70825C11.735 2.70825 11.2974 2.86886 10.9538 3.16105ZM6.81688 16.6515C6.42025 16.3297 5.92556 16.1551 5.41675 16.1551H4.11675V9.84486H5.41675C5.92557 9.84486 6.42025 9.67022 6.81686 9.34839L12.1334 4.71426V21.2855L6.81688 16.6515Z" stroke="black" stroke-width="0.4"/>
  <path d="M23.5595 9.37508C23.1793 8.99494 22.5466 9.01137 22.1461 9.41179L19.9339 11.6225L17.7214 9.41141C17.321 9.01099 16.6883 8.99455 16.3081 9.3747C15.928 9.75484 15.9444 10.3876 16.3448 10.788L18.5567 12.9999L16.346 15.212C15.9455 15.6124 15.9291 16.2452 16.3093 16.6253C16.6894 17.0055 17.3222 16.989 17.7226 16.5886L19.934 14.3772L22.145 16.5882C22.5454 16.9886 23.1782 17.0051 23.5583 16.6249C23.9385 16.2448 23.922 15.612 23.5216 15.2116L21.3114 12.9998L23.5228 10.7884C23.9232 10.388 23.9396 9.75523 23.5595 9.37508Z" stroke="black" stroke-width="0.4"/>
</svg>