<svg xmlns="http://www.w3.org/2000/svg" width="22" height="22" viewBox="0 0 22 22" fill="none">
  <path d="M4.73239 6.62563L9.26844 2.67488C9.55919 2.42765 9.92949 2.29175 10.3124 2.29175C11.1984 2.29175 11.9166 3.00427 11.9166 3.88322V18.1169C11.9166 18.4968 11.7796 18.8642 11.5304 19.1526C10.9538 19.82 9.94111 19.8973 9.26844 19.3253L4.73239 15.3745C4.69086 15.3392 4.63796 15.3198 4.58325 15.3198H3.43742C2.55146 15.3198 1.83325 14.6072 1.83325 13.7283V8.27183C1.83325 7.39289 2.55146 6.68036 3.43742 6.68036H4.58325C4.63796 6.68036 4.69086 6.66095 4.73239 6.62563ZM4.58325 13.6698C5.01379 13.6698 5.43237 13.8175 5.76798 14.0899L10.2666 18.011V3.98914L5.76796 7.91028C5.43236 8.1826 5.01379 8.33036 4.58325 8.33036H3.48325V13.6698H4.58325Z" fill="black"/>
  <path d="M13.7147 7.70595C14.0254 7.37262 14.5474 7.35423 14.8807 7.66488C15.7062 8.4342 16.4865 9.52769 16.4865 11.0184C16.4865 12.4768 15.7343 13.5443 14.9495 14.3066C14.6226 14.624 14.1003 14.6164 13.7829 14.2895C13.4654 13.9627 13.4731 13.4404 13.7999 13.1229C14.4215 12.5193 14.8365 11.8517 14.8365 11.0184C14.8365 10.1625 14.4027 9.47482 13.7558 8.87195C13.4225 8.56131 13.4041 8.03927 13.7147 7.70595Z" fill="black"/>
  <path d="M17.6805 5.60572C17.3642 5.27773 16.8419 5.26824 16.5139 5.58452C16.1859 5.90079 16.1764 6.42307 16.4927 6.75105C17.6602 7.96175 18.5135 9.12068 18.5135 11.0773C18.5135 12.9587 17.7121 14.0658 16.6196 15.268C16.3132 15.6052 16.3381 16.127 16.6753 16.4334C17.0125 16.7398 17.5343 16.7149 17.8407 16.3777C19.0264 15.073 20.1635 13.5775 20.1635 11.0773C20.1635 8.48719 18.9611 6.93377 17.6805 5.60572Z" fill="black"/>
  <path d="M4.73239 6.62563L9.26844 2.67488C9.55919 2.42765 9.92949 2.29175 10.3124 2.29175C11.1984 2.29175 11.9166 3.00427 11.9166 3.88322V18.1169C11.9166 18.4968 11.7796 18.8642 11.5304 19.1526C10.9538 19.82 9.94111 19.8973 9.26844 19.3253L4.73239 15.3745C4.69086 15.3392 4.63796 15.3198 4.58325 15.3198H3.43742C2.55146 15.3198 1.83325 14.6072 1.83325 13.7283V8.27183C1.83325 7.39289 2.55146 6.68036 3.43742 6.68036H4.58325C4.63796 6.68036 4.69086 6.66095 4.73239 6.62563ZM4.58325 13.6698C5.01379 13.6698 5.43237 13.8175 5.76798 14.0899L10.2666 18.011V3.98914L5.76796 7.91028C5.43236 8.1826 5.01379 8.33036 4.58325 8.33036H3.48325V13.6698H4.58325Z" stroke="black" stroke-width="0.4" stroke-linecap="round"/>
  <path d="M13.7147 7.70595C14.0254 7.37262 14.5474 7.35423 14.8807 7.66488C15.7062 8.4342 16.4865 9.52769 16.4865 11.0184C16.4865 12.4768 15.7343 13.5443 14.9495 14.3066C14.6226 14.624 14.1003 14.6164 13.7829 14.2895C13.4654 13.9627 13.4731 13.4404 13.7999 13.1229C14.4215 12.5193 14.8365 11.8517 14.8365 11.0184C14.8365 10.1625 14.4027 9.47482 13.7558 8.87195C13.4225 8.56131 13.4041 8.03927 13.7147 7.70595Z" stroke="black" stroke-width="0.4" stroke-linecap="round"/>
  <path d="M17.6805 5.60572C17.3642 5.27773 16.8419 5.26824 16.5139 5.58452C16.1859 5.90079 16.1764 6.42307 16.4927 6.75105C17.6602 7.96175 18.5135 9.12068 18.5135 11.0773C18.5135 12.9587 17.7121 14.0658 16.6196 15.268C16.3132 15.6052 16.3381 16.127 16.6753 16.4334C17.0125 16.7398 17.5343 16.7149 17.8407 16.3777C19.0264 15.073 20.1635 13.5775 20.1635 11.0773C20.1635 8.48719 18.9611 6.93377 17.6805 5.60572Z" stroke="black" stroke-width="0.4" stroke-linecap="round"/>
</svg>